<?xml version="1.0" encoding="UTF-8"?>
<svg id="Layer_2" data-name="Layer 2" xmlns="http://www.w3.org/2000/svg" viewBox="0 0 131.02 42.51">
  <defs>
    <style>
      .cls-1 {
        fill: #ed1c27;
      }

      .cls-2 {
        fill: #32566c;
      }

      .cls-3 {
        fill: #fff;
      }

      .cls-4 {
        fill: #039447;
      }
    </style>
  </defs>
  <g id="Layer_1-2" data-name="Layer 1">
    <g>
      <path class="cls-2" d="M38.22,32.53h4.58c1.77,0,3.04,1.09,3.04,2.69,0,.88-.36,1.56-1.18,2.08,1.14.41,1.69,1.3,1.69,2.34,0,1.61-1.24,2.73-3.05,2.73h-5.08v-9.83ZM42.54,36.66c.8,0,1.28-.5,1.28-1.22,0-.77-.58-1.22-1.35-1.22h-2.29v2.45h2.37ZM42.99,40.69c.78,0,1.3-.5,1.3-1.21,0-.77-.51-1.28-1.3-1.28h-2.81v2.49h2.81Z"/>
      <path class="cls-2" d="M47.54,38.87c0-2.11,1.44-3.61,3.35-3.61,1.08,0,1.81.41,2.27.98l.04-.84h1.82v6.95h-1.82l-.04-.84c-.46.58-1.19.98-2.27.98-1.91,0-3.35-1.53-3.35-3.63ZM51.26,36.92c-1.11,0-1.87.84-1.87,1.95s.75,1.98,1.87,1.98,1.9-.87,1.9-1.98-.79-1.95-1.9-1.95Z"/>
      <path class="cls-2" d="M59.31,36.95v2.86c0,.72.41,1.04,1.03,1.04.35,0,.79-.06,1.18-.17l.17,1.54c-.43.17-1.11.28-1.68.28-1.53,0-2.56-.79-2.56-2.43v-3.13h-1.17v-1.54h1.18v-2.23h1.8v2.23h2.01v1.54h-1.97Z"/>
      <path class="cls-2" d="M65.27,36.95v2.86c0,.72.41,1.04,1.03,1.04.35,0,.79-.06,1.18-.17l.17,1.54c-.43.17-1.11.28-1.68.28-1.53,0-2.56-.79-2.56-2.43v-3.13h-1.17v-1.54h1.18v-2.23h1.8v2.23h2.01v1.54h-1.97Z"/>
      <path class="cls-2" d="M75.04,41.85c-.67.38-1.61.65-2.62.65-2.46,0-4.04-1.46-4.04-3.62s1.51-3.62,3.57-3.62,3.76,1.61,3.3,4.18h-5.02c.19.97,1.06,1.43,2.2,1.43.86,0,1.67-.2,2.35-.53l.26,1.51ZM73.58,38.2c-.05-.77-.64-1.37-1.59-1.37s-1.66.58-1.74,1.37h3.33Z"/>
      <path class="cls-2" d="M78.67,36.36c.35-.72,1.03-1.09,1.81-1.09.41,0,.76.11.9.16l-.14,1.66c-.19-.07-.49-.16-.86-.16-.82,0-1.68.44-1.68,1.88v3.56h-1.86v-6.95h1.8l.04.95Z"/>
      <path class="cls-2" d="M82.48,33.18c0-.63.43-1.07,1.06-1.07s1.07.43,1.07,1.07-.44,1.06-1.07,1.06-1.06-.43-1.06-1.06ZM82.62,42.36v-6.95h1.86v6.95h-1.86Z"/>
      <path class="cls-2" d="M92.66,41.85c-.67.38-1.61.65-2.62.65-2.46,0-4.04-1.46-4.04-3.62s1.51-3.62,3.57-3.62,3.76,1.61,3.3,4.18h-5.02c.19.97,1.06,1.43,2.2,1.43.86,0,1.67-.2,2.35-.53l.26,1.51ZM91.21,38.2c-.05-.77-.64-1.37-1.59-1.37s-1.66.58-1.74,1.37h3.33Z"/>
      <path class="cls-2" d="M97.75,38.26c1.38.25,2.06.88,2.06,2.08,0,1.4-1.16,2.17-2.94,2.17-1.04,0-2.05-.19-2.68-.5l.2-1.52c.69.29,1.63.48,2.34.48.9,0,1.29-.19,1.29-.6,0-.37-.3-.55-1.11-.69l-.83-.16c-1.34-.23-1.99-.91-1.99-2.06,0-1.3,1.2-2.19,3.05-2.19.87,0,1.73.16,2.35.43l-.16,1.51c-.51-.22-1.43-.39-2.1-.39-.91,0-1.35.22-1.35.63,0,.34.3.51,1.14.67l.74.14Z"/>
      <path class="cls-3" d="M30.77,15.4c0,8.5-6.89,15.39-15.39,15.39S0,23.89,0,15.4,6.89,0,15.39,0s15.39,6.89,15.39,15.39"/>
      <path class="cls-4" d="M14.38,10.28c-1.23,0-1.72-.46-1.54-1.51L14.5.03c.28-.03.58-.03.89-.03,6.71,0,12.44,4.28,14.53,10.28h-15.55ZM0,15.39C0,8.77,4.19,3.14,10.1.95l-4.77,10.93c-2.25,5.17.58,8.74,7.14,8.74h17.39c-2.12,5.91-7.82,10.16-14.47,10.16C6.9,30.78,0,23.89,0,15.39"/>
      <path class="cls-1" d="M12.84,17.73c-4.53,0-6.56-2.49-5.17-6.43L11.48.49c.58-.15,1.17-.25,1.75-.34l-2.46,9.36c-.68,2.62.18,3.66,2.99,3.66h16.87c.09.71.15,1.48.15,2.22,0,.8-.06,1.57-.18,2.34H12.84Z"/>
      <path class="cls-1" d="M35.86,16.56c0-6.4,4.74-11.24,11.05-11.24,4,0,7.17,2.34,8.5,6l-4.43,1.26c-.68-1.97-2.34-3.08-4.49-3.08-3.66,0-6.31,2.8-6.31,6.65,0,3.02,1.94,5.02,5.08,5.02,2.12,0,4.03-1.14,4.99-3.08l3.91,1.97c-1.85,3.26-5.36,5.36-9.33,5.36-5.36,0-8.96-3.82-8.96-8.87"/>
      <path class="cls-1" d="M67.66,16.78c0-2.25-1.57-3.79-3.88-3.79-2.68,0-4.71,2.12-4.71,4.89,0,2.25,1.51,3.79,3.82,3.79,2.71,0,4.77-2.12,4.77-4.89M55.07,18.28c0-4.99,3.79-9.08,8.37-9.08,2.16,0,3.76.74,4.8,2.25l.8-1.82h3.36l-1.63,15.39h-3.97l.22-1.82c-1.39,1.51-3.11,2.25-5.26,2.25-3.82,0-6.68-3.11-6.68-7.17"/>
      <path class="cls-1" d="M88.97,19.85l.68-6.4h-2.68l.4-3.82h2.68l.34-3.11,4.09-1.2-.46,4.31h3.48l-.4,3.82h-3.48l-.68,6.4c-.12,1.26.55,1.63,2.09,1.63.34,0,.8-.03,1.23-.06l-.4,3.6c-.77.09-1.45.12-2.06.12-4,0-5.2-1.75-4.83-5.29"/>
      <path class="cls-1" d="M97.99,25.03l1.63-15.39h3.36l.43,1.82c1.2-1.42,3.11-2.12,4.89-2.12l-.43,4.13h-.65c-2.19,0-4.19,1.26-4.46,3.94l-.8,7.63h-3.97Z"/>
      <path class="cls-1" d="M120.06,16.78c0-2.19-1.48-3.69-3.72-3.69-2.62,0-4.62,2.06-4.62,4.8,0,2.19,1.48,3.69,3.72,3.69,2.62,0,4.62-2.06,4.62-4.8M107.71,18.22c0-5.02,4-9.02,9.02-9.02,4.25,0,7.33,3.11,7.33,7.23,0,5.02-4,9.02-9.02,9.02-4.25,0-7.33-3.11-7.33-7.23"/>
      <polygon class="cls-1" points="124.98 25.03 126.92 6.53 131.02 5.32 128.95 25.03 124.98 25.03"/>
      <path class="cls-1" d="M72.28,21.21l4.03-1.35c.52,1.32,1.48,2,2.89,2s2.15-.52,2.15-1.26c0-2.22-7.3-1.2-7.3-5.97,0-3.14,2.71-5.42,6.4-5.42,2.62,0,4.59,1.54,5.39,4.28l-3.91,1.11c-.31-1.23-.98-1.85-2.03-1.85s-1.75.58-1.75,1.32c0,2.19,7.39.89,7.39,6.03,0,3.17-2.74,5.36-6.83,5.36-3.23,0-5.42-1.45-6.43-4.25"/>
    </g>
  </g>
</svg>