<?xml version="1.0" encoding="UTF-8"?>
<svg id="Layer_2" data-name="Layer 2" xmlns="http://www.w3.org/2000/svg" viewBox="0 0 11.72 2.75">
  <defs>
    <style>
      .cls-1 {
        fill: #038e46;
      }

      .cls-2 {
        fill: #fff;
      }

      .cls-3 {
        fill: #e31e26;
      }
    </style>
  </defs>
  <g id="Layer_11" data-name="Layer 11">
    <g id="logo">
      <g>
        <path class="cls-2" d="M1.23,1.18h1.51c-.01-.09-.03-.18-.06-.26h-1.39c-.11,0-.15-.04-.14-.14L1.3,0s-.08,0-.11.01l-.22.84c-.06.23.02.33.27.33"/>
        <path class="cls-2" d="M1.15,1.59c-.41,0-.59-.22-.46-.58L1.03.04s-.08.02-.12.04l-.43.98c-.2.46.05.78.64.78h1.56c.03-.08.05-.17.07-.26h-1.59Z"/>
        <path class="cls-1" d="M1.29.92h1.39c-.19-.54-.7-.92-1.3-.92-.03,0-.05,0-.08,0l-.15.78c-.02.09.03.14.14.14"/>
        <path class="cls-1" d="M.48,1.06L.9.08C.38.27.01.77,0,1.34c0,1.57,2.12,1.96,2.67.5h-1.56c-.59,0-.84-.32-.64-.78"/>
        <path class="cls-3" d="M1.15,1.59h1.59c.01-.07.02-.14.02-.21s0-.13-.01-.2h-1.51c-.25,0-.33-.09-.27-.33L1.18.01c-.05,0-.11.02-.16.03l-.34.96c-.12.35.06.58.46.58"/>
        <path class="cls-3" d="M3.21,1.51c0-.57.42-1.01.99-1.01.36,0,.64.21.76.54l-.4.11c-.06-.18-.21-.28-.4-.28-.33,0-.56.25-.56.6,0,.27.17.45.45.45.19,0,.36-.1.45-.28l.35.18c-.17.29-.48.48-.83.48-.48,0-.8-.34-.8-.79"/>
        <path class="cls-3" d="M4.93,1.66c0-.45.34-.81.75-.81.19,0,.34.07.43.2l.07-.16h.3l-.15,1.38h-.36l.02-.16c-.12.14-.28.2-.47.2-.34,0-.6-.28-.6-.64M6.06,1.52c0-.2-.14-.34-.35-.34-.24,0-.42.19-.42.44,0,.2.14.34.34.34.24,0,.43-.19.43-.44"/>
        <path class="cls-3" d="M7.96,1.8l.06-.57h-.24l.04-.34h.24l.03-.28.37-.11-.04.39h.31l-.04.34h-.31l-.06.57c-.01.11.05.15.19.15.03,0,.07,0,.11,0l-.04.32c-.07,0-.13.01-.18.01-.36,0-.47-.16-.43-.47"/>
        <path class="cls-3" d="M8.77,2.26l.15-1.38h.3l.04.16c.11-.13.28-.19.44-.19l-.04.37h-.06c-.2,0-.37.11-.4.35l-.07.68h-.36Z"/>
        <path class="cls-3" d="M9.64,1.65c0-.45.36-.81.81-.81.38,0,.66.28.66.65,0,.45-.36.81-.81.81-.38,0-.66-.28-.66-.65M10.74,1.52c0-.2-.13-.33-.33-.33-.23,0-.41.18-.41.43,0,.2.13.33.33.33.23,0,.41-.18.41-.43"/>
        <polygon class="cls-3" points="11.18 2.26 11.36 .61 11.72 .5 11.54 2.26 11.18 2.26"/>
        <path class="cls-3" d="M6.47,1.92l.36-.12c.05.12.13.18.26.18s.19-.05.19-.11c0-.2-.65-.11-.65-.53,0-.28.24-.48.57-.48.23,0,.41.14.48.38l-.35.1c-.03-.11-.09-.17-.18-.17s-.16.05-.16.12c0,.2.66.08.66.54,0,.28-.25.48-.61.48-.29,0-.48-.13-.58-.38"/>
      </g>
    </g>
  </g>
</svg>