<svg id="Layer_1" data-name="Layer 1" xmlns="http://www.w3.org/2000/svg" viewBox="0 0 155.25 57.2"><defs><style>.cls-1{fill:#ef4135;}.cls-2{fill:#1c3f94;}</style></defs><path class="cls-1" d="M395.08,296.71l.63-1.48H397l-.06,1.48h1.17l0-5.84h-1.47l-2.74,5.84Zm1.71-4c.11-.27.2-.53.29-.8s.09-.27.13-.39h0c0,.12,0,.25-.06.39s-.06.53-.07.8l-.09,1.66h-.94Z" transform="translate(-356.77 -239.65)"/><path class="cls-1" d="M404.49,290.87h1.09l-.95,4.07a2,2,0,0,1-2.28,1.91c-1.44,0-1.72-.62-1.42-1.91l.94-4.07H403l-.93,4c-.13.56-.22,1.12.52,1.12s.88-.56,1-1.12Z" transform="translate(-356.77 -239.65)"/><polygon class="cls-1" points="51.29 51.22 54.92 51.22 54.73 52.08 53.46 52.08 52.3 57.06 51.22 57.06 52.37 52.08 51.09 52.08 51.29 51.22"/><path class="cls-1" d="M413.36,294.16c-.36,1.55-.51,2.69,1.28,2.69s2.17-1.14,2.53-2.69l.2-.84c.3-1.48.43-2.59-1.31-2.59s-2.11,1.11-2.51,2.59Zm1.37-1.08,0-.22c.12-.49.34-1.25,1.08-1.25s.57.93.45,1.42L416,294.6c-.13.56-.33,1.37-1.1,1.37s-.61-.79-.49-1.27Z" transform="translate(-356.77 -239.65)"/><path class="cls-1" d="M420.49,296.71H419.4l1.35-5.84h1.73l0,2.71a12.3,12.3,0,0,1-.11,1.34h0c.19-.57.32-1,.48-1.34l1.21-2.71h1.73l-1.35,5.84h-1.09l.42-1.84c.27-1.16.56-2.32.9-3.48h0l-2.4,5.32h-.67l.1-5.32h-.05c-.19,1.16-.44,2.32-.71,3.48Z" transform="translate(-356.77 -239.65)"/><path class="cls-1" d="M427.83,294.16c-.37,1.55-.51,2.69,1.28,2.69s2.17-1.14,2.53-2.69l.19-.84c.3-1.48.44-2.59-1.31-2.59s-2.11,1.11-2.5,2.59Zm1.36-1.08.05-.22c.12-.49.34-1.25,1.08-1.25s.57.93.46,1.42l-.37,1.57c-.13.56-.32,1.37-1.1,1.37s-.6-.79-.49-1.27Z" transform="translate(-356.77 -239.65)"/><path class="cls-1" d="M435.77,296.71a1.74,1.74,0,0,0,1.68-1,4.06,4.06,0,0,0,.24-.72c.17-.76.06-1.27-.53-1.35v0a1.5,1.5,0,0,0,1-1.22,1.45,1.45,0,0,0,0-1.05c-.22-.4-.67-.43-1.14-.43H435.2l-1.35,5.84Zm0-3.48.35-1.5h.51c.49,0,.53.23.43.67a1.26,1.26,0,0,1-.26.63,1,1,0,0,1-.72.2Zm-.6,2.62.4-1.76H436c.67,0,.74.26.59.89a1.05,1.05,0,0,1-.52.81,1.24,1.24,0,0,1-.43.06Z" transform="translate(-356.77 -239.65)"/><polygon class="cls-1" points="84.62 51.22 83.27 57.06 84.36 57.06 85.7 51.22 84.62 51.22"/><polygon class="cls-1" points="88.59 51.22 87.25 57.06 90.35 57.06 90.55 56.2 88.53 56.2 89.68 51.22 88.59 51.22"/><polygon class="cls-1" points="92.92 57.06 94.28 51.22 97.34 51.22 97.14 52.07 95.17 52.07 94.83 53.55 96.65 53.55 96.45 54.4 94.63 54.4 94.21 56.2 96.19 56.2 95.99 57.06 92.92 57.06"/><path class="cls-1" d="M462.38,292.65l0-.09c.11-.49.15-.95-.42-.95a.66.66,0,0,0-.73.55c-.1.44.14.61.44.83a7.66,7.66,0,0,1,1.09.95,1.29,1.29,0,0,1,.21,1.23,2.12,2.12,0,0,1-2.19,1.68c-1.31,0-1.6-.73-1.36-1.78l.1-.43h1.09l-.1.45c-.13.51,0,.88.47.88a.79.79,0,0,0,.84-.69.71.71,0,0,0-.25-.77c-.47-.44-1.11-.76-1.41-1.34a1.45,1.45,0,0,1-.08-.9,1.9,1.9,0,0,1,2.07-1.54c1.73,0,1.38,1.34,1.25,1.92Z" transform="translate(-356.77 -239.65)"/><polygon class="cls-1" points="108.57 57.06 109.92 51.22 112.99 51.22 112.79 52.07 110.82 52.07 110.48 53.55 112.3 53.55 112.1 54.4 110.28 54.4 109.86 56.2 111.83 56.2 111.64 57.06 108.57 57.06"/><path class="cls-1" d="M472.94,294.2h.15a2.66,2.66,0,0,1,.76.07c.35.11.23.6.15,1l-.05.25a4.46,4.46,0,0,0-.18,1.23H475l0-.11c-.18-.14,0-1.11.14-1.6l.05-.25c.14-.55,0-1-.59-1.05v0c.76-.1,1.07-.77,1.22-1.41.25-1.07-.39-1.4-1.33-1.4h-2.06l-1.36,5.84h1.1l.58-2.51Zm.38-2.47h.81c.41,0,.66.11.51.77s-.47.82-.84.84H473Z" transform="translate(-356.77 -239.65)"/><path class="cls-1" d="M481.5,290.87h1.17l-2.62,5.84H478.6l.06-5.84h1.17l-.19,3.74a8.44,8.44,0,0,1-.09,1c0,.15,0,.32-.06.48h0a3.86,3.86,0,0,1,.16-.48,10,10,0,0,1,.36-1Z" transform="translate(-356.77 -239.65)"/><polygon class="cls-1" points="128.42 51.22 127.07 57.06 128.16 57.06 129.51 51.22 128.42 51.22"/><path class="cls-1" d="M491.76,294.63c0,.11-.07.23-.1.33-.31,1.07-.85,1.89-2.07,1.89-1.78,0-1.64-1.14-1.28-2.7l.2-.83c.38-1.49.76-2.59,2.5-2.59,1,0,1.4.51,1.25,1.51,0,.12,0,.24-.06.37l0,.07h-1.07c0-.37.23-1.07-.3-1.07-.74,0-1,.75-1.08,1.25l-.42,1.84c-.12.48-.26,1.27.49,1.27.6,0,.75-1,.86-1.34Z" transform="translate(-356.77 -239.65)"/><polygon class="cls-1" points="137.18 57.06 138.53 51.22 141.59 51.22 141.4 52.07 139.42 52.07 139.08 53.55 140.9 53.55 140.7 54.4 138.88 54.4 138.46 56.2 140.44 56.2 140.24 57.06 137.18 57.06"/><path class="cls-1" d="M502.86,292.65l0-.09c.11-.49.15-.95-.42-.95a.66.66,0,0,0-.72.55c-.1.44.14.61.43.83a7.74,7.74,0,0,1,1.1.95,1.32,1.32,0,0,1,.21,1.23,2.12,2.12,0,0,1-2.19,1.68c-1.31,0-1.61-.73-1.36-1.78l.09-.43h1.1l-.1.45c-.13.51,0,.88.47.88a.79.79,0,0,0,.84-.69.7.7,0,0,0-.26-.77c-.46-.44-1.1-.76-1.41-1.34a1.52,1.52,0,0,1-.07-.9,1.9,1.9,0,0,1,2.07-1.54c1.73,0,1.38,1.34,1.25,1.92Z" transform="translate(-356.77 -239.65)"/><polygon class="cls-2" points="70.91 12.92 62.75 48.17 53.79 48.17 52.17 32.14 48.46 48.17 39.85 48.17 48.02 12.92 56.57 12.92 58.63 28.79 62.3 12.92 70.91 12.92"/><polygon class="cls-2" points="85.32 12.88 77.15 48.17 66.88 48.17 75.06 12.88 85.32 12.88"/><polygon class="cls-2" points="110.05 12.92 108.41 19.98 102.32 19.98 95.79 48.17 85.54 48.17 92.06 19.98 86.03 19.98 87.66 12.92 110.05 12.92"/><polygon class="cls-2" points="112.42 12.92 129.54 12.92 127.9 19.98 121.06 19.98 119.5 26.68 125.89 26.68 124.34 33.38 117.95 33.38 116.16 41.11 123.66 41.11 122.02 48.17 104.26 48.17 112.42 12.92"/><path class="cls-2" d="M481.77,287.82h12.94a31.51,31.51,0,0,0,5.59-.36,9.45,9.45,0,0,0,3.35-1.26,6.54,6.54,0,0,0,2.33-2.5,29.22,29.22,0,0,0,2-6.35L510.8,265a43.52,43.52,0,0,0,1.22-6.72,4.74,4.74,0,0,0-1-3.1,6,6,0,0,0-3.52-2c-1.64-.41-4.95-.61-9.9-.61h-7.67ZM501,258.91a1.11,1.11,0,0,1,.54,1A17.15,17.15,0,0,1,501,263l-3.17,13.7c-.55,2.35-1,3.79-1.51,4.32s-1.42.8-2.9.8l5.37-23.2a5,5,0,0,1,2.21.31" transform="translate(-356.77 -239.65)"/><path class="cls-2" d="M400.76,252.61l-6.3,27.19s-4.33,15.57-18,15.57h-4s7.31-1.58,9.36-10.45,7.49-32.31,7.49-32.31Z" transform="translate(-356.77 -239.65)"/><path class="cls-1" d="M367.34,284.92c1.14-4.89,3.3-14.22,5-21.61-4.59,5.72-9,6.83-9,6.83a42.55,42.55,0,0,0,10.82-14.89l.61-2.64H363.32L357,279.8s-2.87,15.57,10.83,15.57h4s-6.58-1.58-4.53-10.45" transform="translate(-356.77 -239.65)"/><path class="cls-1" d="M444,244.73a6.75,6.75,0,0,1-6.24,5.06,3.89,3.89,0,0,1-3.89-5.06,6.79,6.79,0,0,1,6.24-5.08,3.9,3.9,0,0,1,3.89,5.08" transform="translate(-356.77 -239.65)"/></svg>